HIERARCHY
ROOT ui
{
	 OFFSET 0 0 0
	 CHANNELS 3 XPosition YPosition Z Position
	 EndSite
	 {
	 OFFSET 0 -1 0
	 }
}
ROOT li
{
	 OFFSET 0 0 0
	 CHANNELS 3 XPosition YPosition Z Position
	 EndSite
	 {
	 OFFSET 0 -1 0
	 }
}
ROOT ul
{
	 OFFSET 0 0 0
	 CHANNELS 3 XPosition YPosition Z Position
	 EndSite
	 {
	 OFFSET 0 -1 0
	 }
}
ROOT ll
{
	 OFFSET 0 0 0
	 CHANNELS 3 XPosition YPosition Z Position
	 EndSite
	 {
	 OFFSET 0 -1 0
	 }
}
ROOT tt
{
	 OFFSET 0 0 0
	 CHANNELS 3 XPosition YPosition Z Position
	 EndSite
	 {
	 OFFSET 0 -1 0
	 }
}
ROOT tb
{
	 OFFSET 0 0 0
	 CHANNELS 3 XPosition YPosition Z Position
	 EndSite
	 {
	 OFFSET 0 -1 0
	 }
}
ROOT td
{
	 OFFSET 0 0 0
	 CHANNELS 3 XPosition YPosition Z Position
	 EndSite
	 {
	 OFFSET 0 -1 0
	 }
}
ROOT v
{
	 OFFSET 0 0 0
	 CHANNELS 3 XPosition YPosition Z Position
	 EndSite
	 {
	 OFFSET 0 -1 0
	 }
}
ROOT bn
{
	 OFFSET 0 0 0
	 CHANNELS 3 XPosition YPosition Z Position
	 EndSite
	 {
	 OFFSET 0 -1 0
	 }
}
MOTION
Frames: 21
Frame Time: 0.002
0.0011401209831237793	-5.604239702224731E-4	0		0.47782000732421875	-2.377431640625	0		-1.0601351318359375	0.04441442108154297	0		-0.8318167724609375	-2.4851181640625	0		1.4529871826171874	-0.6241220703125	0		3.1939462890625	0.04836376190185547	0		4.585529296875	0.0602548942565918	0		5.6072685546875	0.03714066696166992	0		0.02919364356994629	5.96322900390625	0		
0.004019598007202149	0.002032835006713867	0		0.40198724365234373	-2.363928955078125	0		-1.132238037109375	0.04911442947387695	0		-0.81491796875	-2.48817724609375	0		1.4771448974609376	-0.621314453125	0		3.188144287109375	0.06859373474121094	0		4.5894443359375	0.06790776824951172	0		5.62121240234375	0.04604538345336914	0		-0.14025344848632812	5.93842138671875	0		
0.0808205795288086	9.418900310993195E-5	0		0.48572665405273435	-2.370815185546875	0		-1.0582911376953126	0.054735157012939455	0		-0.823833984375	-2.480673828125	0		1.4544495849609376	-0.6105311279296874	0		3.181663818359375	0.05678391647338867	0		4.600541015625	0.08435730743408203	0		5.61101220703125	0.04838881683349609	0		-0.1089576644897461	5.9423095703125	0		
-0.02231497001647949	0.0028819119930267333	0		0.4306272277832031	-2.36681103515625	0		-1.0625513916015625	0.05102908325195313	0		-0.8249994506835937	-2.483321044921875	0		1.4773233642578125	-0.6207189331054688	0		3.19258203125	0.06356888961791993	0		4.589025390625	0.07119524383544922	0		5.6256484375	0.04212542343139648	0		0.020785873413085937	5.962236328125	0		
0.003482011079788208	0.001023637056350708	0		0.4852959899902344	-2.37304296875	0		-1.0627486572265625	0.050268306732177734	0		-0.8262127075195312	-2.485945556640625	0		1.448462646484375	-0.616876953125	0		3.181261962890625	0.05874686431884766	0		4.5888193359375	0.0727169189453125	0		5.62061474609375	0.05216374969482422	0		0.017241199493408202	5.96393212890625	0		
-0.022677425384521485	0.0022119369506835938	0		0.43212472534179686	-2.367124755859375	0		-1.0629512939453125	0.049542564392089844	0		-0.8254487915039063	-2.4865810546875	0		1.456453857421875	-0.6198013916015624	0		3.160196533203125	0.06704734802246094	0		4.58376513671875	0.08224105072021484	0		5.60627685546875	0.047259757995605466	0		-0.11667848205566406	5.941181640625	0		
0.0031016390323638917	3.984220027923584E-4	0		0.44365411376953123	-2.373487548828125	0		-1.04730224609375	0.04155160522460938	0		-0.8447368774414062	-2.48579833984375	0		1.4395772705078125	-0.6142647094726562	0		3.170705810546875	0.0536569938659668	0		4.588384765625	0.07547145080566406	0		5.61019677734375	0.0558705940246582	0		-0.15211788940429688	5.934466796875	0		
-0.015956727027893067	0.008465343475341797	0		0.4664268493652344	-2.363048828125	0		-1.059337646484375	0.05114025115966797	0		-0.772237548828125	-2.492723388671875	0		1.4805220947265625	-0.6168538208007812	0		3.199941650390625	0.07885941314697266	0		4.5922783203125	0.08361524200439453	0		5.6199638671875	0.057239086151123046	0		-0.13908021545410157	5.9448408203125	0		
0.002658905029296875	-1.6351200640201568E-4	0		0.48772177124023436	-2.373568359375	0		-1.06363818359375	0.04762178802490234	0		-0.8195576782226562	-2.4843408203125	0		1.4515389404296875	-0.6131419677734375	0		3.165359375	0.062187225341796874	0		4.58304296875	0.08589690399169922	0		5.6097177734375	0.05885006332397461	0		0.00921952247619629	5.960740234375	0		
-0.023566030502319337	0.0010577410459518433	0		0.4611687316894531	-2.371195556640625	0		-1.06389892578125	0.047074542999267575	0		-0.7872544555664063	-2.492404296875	0		1.4683841552734376	-0.617306640625	0		3.165094482421875	0.06280436706542969	0		4.59066064453125	0.08075920867919922	0		5.6094541015625	0.06014022064208984	0		-0.12506748962402345	5.93990380859375	0		
0.002148909091949463	-6.521090269088745E-4	0		0.4345550537109375	-2.367829833984375	0		-1.064173095703125	0.04657408905029297	0		-0.8468865966796875	-2.49175439453125	0		1.4513502197265624	-0.6128707885742187	0		3.169689208984375	0.05626795196533203	0		4.58323486328125	0.07379419708251952	0		5.60917626953125	0.06130142593383789	0		0.005584022045135498	5.96025439453125	0		
0.0018761520385742188	-8.682609796524048E-4	0		0.43684625244140624	-2.3659853515625	0		-1.0526363525390625	0.035907768249511716	0		-0.8086268310546875	-2.49383642578125	0		1.4561065673828124	-0.618851318359375	0		3.18575732421875	0.07647126770019531	0		4.58705126953125	0.08052902984619141	0		5.6088896484375	0.06233754348754883	0		-0.1624921417236328	5.934998046875	0		
0.005668492794036866	0.002863440990447998	0		0.43703839111328124	-2.36609619140625	0		-1.06069091796875	0.048639915466308595	0		-0.8162319946289063	-2.48405517578125	0		1.45105810546875	-0.6126727294921875	0		3.16423876953125	0.06427780914306641	0		4.598755859375	0.08103094482421876	0		5.61859765625	0.06307755279541015	0		-0.12986543273925782	5.93916845703125	0		
0.001321882963180542	-0.0012438880205154418	0		0.4890458068847656	-2.374103515625	0		-1.0650281982421874	0.045345706939697264	0		-0.8102840576171875	-2.4964794921875	0		1.450888427734375	-0.6125972900390625	0		3.190051025390625	0.07019925689697265	0		4.59434326171875	0.07472835540771484	0		5.6183095703125	0.06388277435302735	0		-0.13118243408203126	5.93896728515625	0		
0.0010502070188522338	-0.0014033830165863037	0		0.43523287963867185	-2.368256103515625	0		-1.06937548828125	0.04109216690063477	0		-0.8200328979492187	-2.488592041015625	0		1.467638916015625	-0.6168272094726562	0		3.163668701171875	0.06497935485839844	0		4.5892158203125	0.08435910034179687	0		5.61390771484375	0.05765586090087891	0		1.1400000192224979E-5	5.95950390625	0		
7.876260280609131E-4	-0.0015440200567245484	0		0.489194091796875	-2.37426318359375	0		-1.0655758056640625	0.04473883056640625	0		-0.8219959106445313	-2.49080810546875	0		1.4323955078125	-0.6201707153320313	0		3.153415771484375	0.06643410491943359	0		4.5818056640625	0.07695494079589844	0		5.6077578125	0.06536978149414062	0		-0.1334254150390625	5.93862890625	0		
5.377600193023682E-4	-0.0016655089855194091	0		0.42911074829101564	-2.38030517578125	0		-1.1259244384765625	0.03951504898071289	0		-0.7951293334960937	-2.50148388671875	0		1.45524853515625	-0.6185169067382813	0		3.16801953125	0.058426460266113284	0		4.5856484375	0.08329924774169922	0		5.60750048828125	0.06590280914306641	0		-0.001013476014137268	5.958224609375	0		
0.011488411903381348	0.009044949531555175	0		0.49331146240234375	-2.369448486328125	0		-1.0561048583984376	0.04211417770385742	0		-0.8138029174804687	-2.483347412109375	0		1.4381640625	-0.6131845703125	0		3.197198486328125	0.08315090942382812	0		4.58465966796875	0.09867623138427735	0		5.61239404296875	0.07428268432617187	0		-0.15215058898925782	5.9416630859375	0		
-0.004826713085174561	0.0032340800762176514	0		0.4353112487792969	-2.368510986328125	0		-1.0662890625	0.04410783004760742	0		-0.7819069213867188	-2.490038330078125	0		1.466947509765625	-0.6166286010742188	0		3.16267724609375	0.06592328643798828	0		4.59231640625	0.09186135864257812	0		5.61703662109375	0.06660831451416016	0		-0.1359385986328125	5.9382822265625	0		
-1.0690700262784958E-4	-0.0019123400449752807	0		0.48717001342773436	-2.376411376953125	0		-1.0664879150390625	0.043964363098144534	0		-0.8199090576171875	-2.4895234375	0		1.446818115234375	-0.615245849609375	0		3.1524951171875	0.06726652526855469	0		4.576015625	0.08641405487060547	0		5.602720703125	0.060205001831054684	0		-0.00421547794342041	5.95899365234375	0		
-2.806900143623352E-4	-0.0019576679468154908	0		0.43527545166015624	-2.368557861328125	0		-1.0607489013671876	0.03874990463256836	0		-0.7751436157226562	-2.503371826171875	0		1.46949755859375	-0.6265790405273437	0		3.158198974609375	0.060327983856201174	0		4.57583642578125	0.08666770172119141	0		5.60254296875	0.06052572250366211	0		-0.00477870512008667	5.95894775390625	0		
